<svg width="100" height="100" viewBox="0 0 100 100" fill="none" xmlns="http://www.w3.org/2000/svg">
	<rect width="100" height="100" rx="20" fill="#000000"/>
	<g transform="translate(25, 20)">
		<!-- TikTok Logo - Musical Note -->
		<path d="M25 10C25 10 20 5 10 5C0 5 -5 10 -5 20C-5 30 0 35 10 35C15 35 19 33 22 30V40C22 50 27 55 37 55C47 55 52 50 52 40C52 30 47 25 37 25C32 25 28 27 25 30V10Z" fill="#FF0050"/>
		<path d="M25 10V20C28 17 32 15 37 15C47 15 52 20 52 30C52 40 47 45 37 45C27 45 22 40 22 30V10H25Z" fill="#00F2EA"/>
		<path d="M22 30C19 33 15 35 10 35C0 35 -5 30 -5 20C-5 10 0 5 10 5C15 5 19 7 22 10V30Z" fill="#FE2C55"/>
	</g>
</svg>
